<?xml version="1.0" encoding="UTF-8" standalone="no"?>
<svg
   xmlns:dc="http://purl.org/dc/elements/1.1/"
   xmlns:cc="http://creativecommons.org/ns#"
   xmlns:rdf="http://www.w3.org/1999/02/22-rdf-syntax-ns#"
   xmlns:svg="http://www.w3.org/2000/svg"
   xmlns="http://www.w3.org/2000/svg"
   id="svg8"
   version="1.1"
   viewBox="0 0 35.871636 36.169605"
   height="36.169605mm"
   width="35.871635mm">
  <defs
     id="defs2" />
  <metadata
     id="metadata5">
    <rdf:RDF>
      <cc:Work
         rdf:about="">
        <dc:format>image/svg+xml</dc:format>
        <dc:type
           rdf:resource="http://purl.org/dc/dcmitype/StillImage" />
        <dc:title></dc:title>
      </cc:Work>
    </rdf:RDF>
  </metadata>
  <g
     transform="translate(-87.166859,-77.466708)"
     id="layer1">
    <path
       id="path888"
       d="m 106.19014,77.615903 c -5.12754,-0.217176 -9.46296,1.682253 -13.364519,4.234842 -3.481348,2.76322 -5.392672,5.623095 -5.436799,9.156024 0.07775,4.755049 -0.738669,9.825551 1.43526,14.261551 1.708286,2.97655 4.767528,4.7549 7.602416,6.50328 3.725602,1.22367 7.682532,2.21837 11.615192,1.47819 3.93544,-0.30345 8.21465,-0.92894 11.13289,-3.85816 2.41801,-2.113 3.94513,-5.30998 3.68076,-8.55139 0.2327,-5.919299 -0.21027,-12.389543 -4.00683,-17.233801 -2.6178,-3.62838 -7.07045,-5.447677 -11.44056,-5.650463 -0.41549,-0.06442 -0.85646,-0.101031 -1.21781,-0.340073 z"
       style="fill:none;stroke:#000000;stroke-width:0.26458332px;stroke-linecap:butt;stroke-linejoin:miter;stroke-opacity:1" />
  </g>
</svg>
