<?xml version="1.0" encoding="UTF-8" standalone="no"?>
<!-- Created with Inkscape (http://www.inkscape.org/) -->

<svg
   xmlns:dc="http://purl.org/dc/elements/1.1/"
   xmlns:cc="http://creativecommons.org/ns#"
   xmlns:rdf="http://www.w3.org/1999/02/22-rdf-syntax-ns#"
   xmlns:svg="http://www.w3.org/2000/svg"
   xmlns="http://www.w3.org/2000/svg"
   xmlns:sodipodi="http://sodipodi.sourceforge.net/DTD/sodipodi-0.dtd"
   xmlns:inkscape="http://www.inkscape.org/namespaces/inkscape"
   width="130.05032mm"
   height="156.97081mm"
   viewBox="0 0 130.05032 156.97081"
   version="1.1"
   id="svg8"
   inkscape:version="0.92.3 (2405546, 2018-03-11)"
   sodipodi:docname="example.png">
  <defs
     id="defs2" />
  <sodipodi:namedview
     id="base"
     pagecolor="#ffffff"
     bordercolor="#666666"
     borderopacity="1.0"
     inkscape:pageopacity="0.0"
     inkscape:pageshadow="2"
     inkscape:zoom="0.49497475"
     inkscape:cx="120.04199"
     inkscape:cy="126.42834"
     inkscape:document-units="mm"
     inkscape:current-layer="layer1"
     showgrid="false"
     fit-margin-top="0"
     fit-margin-left="0"
     fit-margin-right="0"
     fit-margin-bottom="0"
     inkscape:window-width="1853"
     inkscape:window-height="1145"
     inkscape:window-x="67"
     inkscape:window-y="27"
     inkscape:window-maximized="1" />
  <metadata
     id="metadata5">
    <rdf:RDF>
      <cc:Work
         rdf:about="">
        <dc:format>image/svg+xml</dc:format>
        <dc:type
           rdf:resource="http://purl.org/dc/dcmitype/StillImage" />
        <dc:title></dc:title>
      </cc:Work>
    </rdf:RDF>
  </metadata>
  <g
     inkscape:label="Layer 1"
     inkscape:groupmode="layer"
     id="layer1"
     transform="translate(-16.049688,-49.401422)">
    <g
       transform="matrix(0,2.5272448,-4.4202729,0,496.91433,-121.61738)"
       id="layer1-93-7"
       inkscape:label="Layer 1"
       style="fill:#cff7d3;fill-opacity:1;stroke-width:0.59838647;stroke-miterlimit:4;stroke-dasharray:none">
      <path
         sodipodi:nodetypes="ccccccccccccc"
         inkscape:connector-curvature="0"
         id="path824-7"
         d="m 68.035714,84.577379 c 0.319259,4.925256 0.639383,9.848355 0.600316,14.785169 0.09369,2.845612 0.296162,5.686062 0.500095,8.525452 2.830004,1.24807 5.961849,0.0902 8.9197,0.50295 17.054178,8.4e-4 34.108355,-0.008 51.162535,0.006 0.49961,-3.99369 0.10625,-8.02981 0.24896,-12.039937 -0.10087,-2.620236 -0.80021,-5.171004 -0.57264,-7.803747 -0.0175,-2.855959 -0.1032,-5.731233 0.33763,-8.563431 -2.68852,-0.405899 -7.22777,-0.4253 -9.8094,-0.0854 -3.88864,0.478895 -16.7592,-0.0098 -20.700545,-0.05353 -13.946334,-0.01749 -15.70363,0.02631 -29.65035,-0.0115 -1.761341,0.399675 -0.832013,3.790602 -1.036301,4.737997 z"
         style="fill:#cff7d3;fill-opacity:1;stroke:#000000;stroke-width:0.59838647;stroke-linecap:butt;stroke-linejoin:miter;stroke-miterlimit:4;stroke-dasharray:none;stroke-opacity:1" />
    </g>
    <g
       id="layer1-9"
       transform="matrix(0.52355153,0,0,0.52358083,-8.4638947,110.63332)"
       style="stroke-width:1.90997827;stroke-miterlimit:4;stroke-dasharray:none">
      <path
         style="fill:#5e5ea1;fill-opacity:1;stroke:#000000;stroke-width:1.90997827;stroke-linecap:butt;stroke-linejoin:miter;stroke-miterlimit:4;stroke-dasharray:none;stroke-opacity:1"
         d="m 106.19014,77.615903 c -5.12754,-0.217176 -9.46296,1.682253 -13.364519,4.234842 -3.481348,2.76322 -5.392672,5.623095 -5.436799,9.156024 0.07775,4.755049 -0.738669,9.825551 1.43526,14.261551 1.708286,2.97655 4.767528,4.7549 7.602416,6.50328 3.725602,1.22367 7.682532,2.21837 11.615192,1.47819 3.93544,-0.30345 8.21465,-0.92894 11.13289,-3.85816 2.41801,-2.113 3.94513,-5.30998 3.68076,-8.55139 0.2327,-5.919299 -0.21027,-12.389543 -4.00683,-17.233801 -2.6178,-3.62838 -7.07045,-5.447677 -11.44056,-5.650463 -0.41549,-0.06442 -0.85646,-0.101031 -1.21781,-0.340073 z"
         id="path888"
         inkscape:connector-curvature="0" />
    </g>
    <g
       transform="matrix(1.7250725,0,0,1.7224321,-89.883221,-74.275333)"
       id="layer1-93"
       inkscape:label="Layer 1"
       style="fill:#fafae4;fill-opacity:1;stroke-width:1.16025984;stroke-miterlimit:4;stroke-dasharray:none">
      <path
         sodipodi:nodetypes="ccccccccccccc"
         inkscape:connector-curvature="0"
         id="path824"
         d="m 68.035714,84.577379 c 0.319259,4.925256 0.639383,9.848355 0.600316,14.785169 0.09369,2.845612 0.296162,5.686062 0.500095,8.525452 2.830004,1.24807 5.961849,0.0902 8.9197,0.50295 17.054178,8.4e-4 34.108355,-0.008 51.162535,0.006 0.49961,-3.99369 0.10625,-8.02981 0.24896,-12.039937 -0.10087,-2.620236 -0.80021,-5.171004 -0.57264,-7.803747 -0.0175,-2.855959 -0.1032,-5.731233 0.33763,-8.563431 -2.68852,-0.405899 -7.22777,-0.4253 -9.8094,-0.0854 -3.88864,0.478895 -16.7592,-0.0098 -20.700545,-0.05353 -13.946334,-0.01749 -15.70363,0.02631 -29.65035,-0.0115 -1.761341,0.399675 -0.832013,3.790602 -1.036301,4.737997 z"
         style="fill:#fafae4;fill-opacity:1;stroke:#000000;stroke-width:1.16025984;stroke-linecap:butt;stroke-linejoin:miter;stroke-miterlimit:4;stroke-dasharray:none;stroke-opacity:1" />
    </g>
    <g
       id="layer1-9-9"
       transform="matrix(0.52355152,0,0,0.52358084,15.001119,88.747072)"
       style="fill:#5e5ea1;fill-opacity:1;stroke-width:1.90997827;stroke-miterlimit:4;stroke-dasharray:none">
      <path
         style="fill:#5e5ea1;fill-opacity:1;stroke:#000000;stroke-width:1.90997827;stroke-linecap:butt;stroke-linejoin:miter;stroke-miterlimit:4;stroke-dasharray:none;stroke-opacity:1"
         d="m 106.19014,77.615903 c -5.12754,-0.217176 -9.46296,1.682253 -13.364519,4.234842 -3.481348,2.76322 -5.392672,5.623095 -5.436799,9.156024 0.07775,4.755049 -0.738669,9.825551 1.43526,14.261551 1.708286,2.97655 4.767528,4.7549 7.602416,6.50328 3.725602,1.22367 7.682532,2.21837 11.615192,1.47819 3.93544,-0.30345 8.21465,-0.92894 11.13289,-3.85816 2.41801,-2.113 3.94513,-5.30998 3.68076,-8.55139 0.2327,-5.919299 -0.21027,-12.389543 -4.00683,-17.233801 -2.6178,-3.62838 -7.07045,-5.447677 -11.44056,-5.650463 -0.41549,-0.06442 -0.85646,-0.101031 -1.21781,-0.340073 z"
         id="path888-2"
         inkscape:connector-curvature="0" />
    </g>
    <g
       id="layer1-9-9-8"
       transform="matrix(0.52355152,0,0,0.52358084,16.872006,113.8704)"
       style="fill:#5e5ea1;fill-opacity:1;stroke-width:1.90997827;stroke-miterlimit:4;stroke-dasharray:none">
      <path
         style="fill:#5e5ea1;fill-opacity:1;stroke:#000000;stroke-width:1.90997827;stroke-linecap:butt;stroke-linejoin:miter;stroke-miterlimit:4;stroke-dasharray:none;stroke-opacity:1"
         d="m 106.19014,77.615903 c -5.12754,-0.217176 -9.46296,1.682253 -13.364519,4.234842 -3.481348,2.76322 -5.392672,5.623095 -5.436799,9.156024 0.07775,4.755049 -0.738669,9.825551 1.43526,14.261551 1.708286,2.97655 4.767528,4.7549 7.602416,6.50328 3.725602,1.22367 7.682532,2.21837 11.615192,1.47819 3.93544,-0.30345 8.21465,-0.92894 11.13289,-3.85816 2.41801,-2.113 3.94513,-5.30998 3.68076,-8.55139 0.2327,-5.919299 -0.21027,-12.389543 -4.00683,-17.233801 -2.6178,-3.62838 -7.07045,-5.447677 -11.44056,-5.650463 -0.41549,-0.06442 -0.85646,-0.101031 -1.21781,-0.340073 z"
         id="path888-2-8"
         inkscape:connector-curvature="0" />
    </g>
    <g
       id="layer1-9-9-8-8"
       transform="matrix(0.52355152,0,0,0.52358084,16.134724,138.22949)"
       style="fill:#5e5ea1;fill-opacity:1;stroke-width:1.90997827;stroke-miterlimit:4;stroke-dasharray:none">
      <path
         style="fill:#5e5ea1;fill-opacity:1;stroke:#000000;stroke-width:1.90997827;stroke-linecap:butt;stroke-linejoin:miter;stroke-miterlimit:4;stroke-dasharray:none;stroke-opacity:1"
         d="m 106.19014,77.615903 c -5.12754,-0.217176 -9.46296,1.682253 -13.364519,4.234842 -3.481348,2.76322 -5.392672,5.623095 -5.436799,9.156024 0.07775,4.755049 -0.738669,9.825551 1.43526,14.261551 1.708286,2.97655 4.767528,4.7549 7.602416,6.50328 3.725602,1.22367 7.682532,2.21837 11.615192,1.47819 3.93544,-0.30345 8.21465,-0.92894 11.13289,-3.85816 2.41801,-2.113 3.94513,-5.30998 3.68076,-8.55139 0.2327,-5.919299 -0.21027,-12.389543 -4.00683,-17.233801 -2.6178,-3.62838 -7.07045,-5.447677 -11.44056,-5.650463 -0.41549,-0.06442 -0.85646,-0.101031 -1.21781,-0.340073 z"
         id="path888-2-8-6"
         inkscape:connector-curvature="0" />
    </g>
    <g
       id="layer1-9-8"
       transform="matrix(0.52355152,0,0,0.52358084,67.653215,110.3959)"
       style="fill:#5e5ea1;fill-opacity:1;stroke-width:1.90997827;stroke-miterlimit:4;stroke-dasharray:none">
      <path
         style="fill:#5e5ea1;fill-opacity:1;stroke:#000000;stroke-width:1.90997827;stroke-linecap:butt;stroke-linejoin:miter;stroke-miterlimit:4;stroke-dasharray:none;stroke-opacity:1"
         d="m 106.19014,77.615903 c -5.12754,-0.217176 -9.46296,1.682253 -13.364519,4.234842 -3.481348,2.76322 -5.392672,5.623095 -5.436799,9.156024 0.07775,4.755049 -0.738669,9.825551 1.43526,14.261551 1.708286,2.97655 4.767528,4.7549 7.602416,6.50328 3.725602,1.22367 7.682532,2.21837 11.615192,1.47819 3.93544,-0.30345 8.21465,-0.92894 11.13289,-3.85816 2.41801,-2.113 3.94513,-5.30998 3.68076,-8.55139 0.2327,-5.919299 -0.21027,-12.389543 -4.00683,-17.233801 -2.6178,-3.62838 -7.07045,-5.447677 -11.44056,-5.650463 -0.41549,-0.06442 -0.85646,-0.101031 -1.21781,-0.340073 z"
         id="path888-3"
         inkscape:connector-curvature="0" />
    </g>
    <flowRoot
       xml:space="preserve"
       id="flowRoot973"
       style="font-style:normal;font-variant:normal;font-weight:normal;font-stretch:normal;font-size:40px;line-height:1.25;font-family:AnjaliOldLipi;-inkscape-font-specification:AnjaliOldLipi;letter-spacing:0px;word-spacing:0px;fill:#000000;fill-opacity:1;stroke:none"
       transform="scale(0.26458333)"><flowRegion
         id="flowRegion975"
         style="font-style:normal;font-variant:normal;font-weight:normal;font-stretch:normal;font-family:AnjaliOldLipi;-inkscape-font-specification:AnjaliOldLipi"><rect
           id="rect977"
           width="377.86523"
           height="145.61116"
           x="111.04859"
           y="276.01184"
           style="font-style:normal;font-variant:normal;font-weight:normal;font-stretch:normal;font-family:AnjaliOldLipi;-inkscape-font-specification:AnjaliOldLipi" /></flowRegion><flowPara
         id="flowPara979"></flowPara></flowRoot>    <text
       xml:space="preserve"
       style="font-style:normal;font-weight:normal;font-size:10.58333302px;line-height:1.25;font-family:sans-serif;letter-spacing:0px;word-spacing:0px;fill:#000000;fill-opacity:1;stroke:none;stroke-width:0.26458332"
       x="31.537802"
       y="80.244415"
       id="text983"><tspan
         sodipodi:role="line"
         id="tspan981"
         x="31.537802"
         y="80.244415"
         style="font-style:normal;font-variant:normal;font-weight:normal;font-stretch:normal;font-size:16.93333244px;font-family:Karumbi;-inkscape-font-specification:Karumbi;stroke-width:0.26458332">This is how you show</tspan><tspan
         sodipodi:role="line"
         x="31.537802"
         y="101.41108"
         style="font-style:normal;font-variant:normal;font-weight:normal;font-stretch:normal;font-size:16.93333244px;font-family:Karumbi;-inkscape-font-specification:Karumbi;stroke-width:0.26458332"
         id="tspan985">a Neural network</tspan></text>
    <path
       style="fill:none;stroke:#000000;stroke-width:0.26458332px;stroke-linecap:butt;stroke-linejoin:miter;stroke-opacity:1"
       d="m 65.485358,147.26854 c -0.733793,-0.26295 -1.995312,-1.2704 -2.195941,0.12187 -0.206706,0.9524 -0.159133,1.92251 -0.852212,2.63687 -0.03873,1.22115 -1.38792,1.5591 -1.732155,2.63455 -0.294141,1.04265 -0.936605,1.87349 -1.589212,2.7165 -0.60361,0.75061 -1.139558,1.59726 -1.801949,2.23465 -0.325581,1.02577 -1.357674,1.74675 -1.211114,2.90693 0.216651,0.99343 -0.19329,2.12939 0.02262,3.00157 1.169683,0.0119 1.905868,1.08853 3.017348,1.23163 0.664912,-0.12068 1.877661,-0.0158 2.75366,-0.0529 0.303979,-2e-4 0.60796,4e-5 0.911938,0.001"
       id="path995"
       inkscape:connector-curvature="0" />
    <path
       style="fill:none;stroke:#000000;stroke-width:0.26458332px;stroke-linecap:butt;stroke-linejoin:miter;stroke-opacity:1"
       d="m 55.857205,163.43133 c 1.824305,0.25501 0.03983,2.85879 1.007571,4.04181 0.360004,2.01945 0.220028,4.06456 0.971933,5.98142 0.02444,2.18655 0.730854,4.12536 1.327647,6.1921 0.598251,2.1333 1.594435,4.14075 2.501595,6.16084 0.193343,0.36217 0.407458,0.72658 0.607858,1.07746"
       id="path997"
       inkscape:connector-curvature="0" />
    <path
       style="fill:none;stroke:#000000;stroke-width:0.26458332px;stroke-linecap:butt;stroke-linejoin:miter;stroke-opacity:1"
       d="m 79.322217,141.54509 c 0.281216,-2.64439 3.061249,2.2665 4.014367,2.84769 2.836586,2.72055 6.645043,3.98142 9.721591,6.31218 2.64013,1.39505 5.060554,3.04047 7.873705,4.11968 2.74814,1.80677 5.87361,2.53374 9.08622,2.95824 1.33788,0.2471 2.44468,1.40805 3.83872,1.30609"
       id="path999"
       inkscape:connector-curvature="0" />
    <path
       style="fill:none;stroke:#000000;stroke-width:0.26458332px;stroke-linecap:butt;stroke-linejoin:miter;stroke-opacity:1"
       d="m 81.193105,166.66842 c 3.132606,-5.53987 10.692847,-0.96348 15.73921,-2.48197 5.586985,-0.13741 12.633965,0.32132 16.954865,-3.10891 l 0.11702,-0.88362 -0.14742,-1.10465"
       id="path1001"
       inkscape:connector-curvature="0" />
    <path
       style="fill:none;stroke:#000000;stroke-width:0.26458332px;stroke-linecap:butt;stroke-linejoin:miter;stroke-opacity:1"
       d="m 80.455822,191.02751 c 3.204101,-4.06226 7.748291,-6.72035 11.09,-10.63554 2.88914,-1.85696 4.337257,-5.66777 7.836745,-6.53738 2.426153,-1.35701 5.185043,-1.78475 7.539643,-3.26822 2.32614,-1.03012 4.28551,-2.63694 5.69699,-4.75441 0.94851,-0.73853 1.42253,-2.66886 1.538,-0.31959"
       id="path1003"
       inkscape:connector-curvature="0" />
  </g>
</svg>
