<?xml version="1.0" encoding="UTF-8" standalone="no"?>
<!-- Created with Inkscape (http://www.inkscape.org/) -->

<svg
   xmlns:dc="http://purl.org/dc/elements/1.1/"
   xmlns:cc="http://creativecommons.org/ns#"
   xmlns:rdf="http://www.w3.org/1999/02/22-rdf-syntax-ns#"
   xmlns:svg="http://www.w3.org/2000/svg"
   xmlns="http://www.w3.org/2000/svg"
   xmlns:sodipodi="http://sodipodi.sourceforge.net/DTD/sodipodi-0.dtd"
   xmlns:inkscape="http://www.inkscape.org/namespaces/inkscape"
   width="61.777012mm"
   height="29.086277mm"
   viewBox="0 0 61.777012 29.086277"
   version="1.1"
   id="svg8"
   inkscape:version="0.92.3 (2405546, 2018-03-11)"
   sodipodi:docname="rectangle.svg">
  <defs
     id="defs2" />
  <sodipodi:namedview
     id="base"
     pagecolor="#ffffff"
     bordercolor="#666666"
     borderopacity="1.0"
     inkscape:pageopacity="0.0"
     inkscape:pageshadow="2"
     inkscape:zoom="1.979899"
     inkscape:cx="98.401933"
     inkscape:cy="14.30265"
     inkscape:document-units="mm"
     inkscape:current-layer="layer1"
     showgrid="false"
     fit-margin-top="0"
     fit-margin-left="0"
     fit-margin-right="0"
     fit-margin-bottom="0"
     inkscape:window-width="1853"
     inkscape:window-height="1145"
     inkscape:window-x="67"
     inkscape:window-y="27"
     inkscape:window-maximized="1" />
  <metadata
     id="metadata5">
    <rdf:RDF>
      <cc:Work
         rdf:about="">
        <dc:format>image/svg+xml</dc:format>
        <dc:type
           rdf:resource="http://purl.org/dc/dcmitype/StillImage" />
        <dc:title></dc:title>
      </cc:Work>
    </rdf:RDF>
  </metadata>
  <g
     inkscape:label="Layer 1"
     inkscape:groupmode="layer"
     id="layer1"
     transform="translate(-67.836964,-79.53289)">
    <path
       style="fill:none;stroke:#000000;stroke-width:0.26458332px;stroke-linecap:butt;stroke-linejoin:miter;stroke-opacity:1"
       d="m 68.035714,84.577379 c 0.319259,4.925256 0.639383,9.848355 0.600316,14.785169 0.09369,2.845612 0.296162,5.686062 0.500095,8.525452 2.830004,1.24807 5.961849,0.0902 8.9197,0.50295 17.054178,8.4e-4 34.108355,-0.008 51.162535,0.006 0.49961,-3.99369 0.10625,-8.02981 0.24896,-12.039937 -0.10087,-2.620236 -0.80021,-5.171004 -0.57264,-7.803747 -0.0175,-2.855959 -0.1032,-5.731233 0.33763,-8.563431 -2.68852,-0.405899 -7.22777,-0.4253 -9.8094,-0.0854 -3.88864,0.478895 -16.7592,-0.0098 -20.700545,-0.05353 -13.946334,-0.01749 -15.70363,0.02631 -29.65035,-0.0115 -1.761341,0.399675 -0.832013,3.790602 -1.036301,4.737997 z"
       id="path824"
       inkscape:connector-curvature="0"
       sodipodi:nodetypes="ccccccccccccc" />
  </g>
</svg>
