<?xml version="1.0" encoding="UTF-8" standalone="no"?>
<!-- Created with Inkscape (http://www.inkscape.org/) -->

<svg
   xmlns:dc="http://purl.org/dc/elements/1.1/"
   xmlns:cc="http://creativecommons.org/ns#"
   xmlns:rdf="http://www.w3.org/1999/02/22-rdf-syntax-ns#"
   xmlns:svg="http://www.w3.org/2000/svg"
   xmlns="http://www.w3.org/2000/svg"
   xmlns:sodipodi="http://sodipodi.sourceforge.net/DTD/sodipodi-0.dtd"
   xmlns:inkscape="http://www.inkscape.org/namespaces/inkscape"
   width="116.71397mm"
   height="74.658997mm"
   viewBox="0 0 116.71397 74.658997"
   version="1.1"
   id="svg1024"
   sodipodi:docname="xy-axis.svg"
   inkscape:version="0.92.3 (2405546, 2018-03-11)">
  <defs
     id="defs1018" />
  <sodipodi:namedview
     id="base"
     pagecolor="#ffffff"
     bordercolor="#666666"
     borderopacity="1.0"
     inkscape:pageopacity="0.0"
     inkscape:pageshadow="2"
     inkscape:zoom="0.98994949"
     inkscape:cx="162.76106"
     inkscape:cy="-19.242875"
     inkscape:document-units="mm"
     inkscape:current-layer="layer1"
     showgrid="false"
     fit-margin-top="0"
     fit-margin-left="0"
     fit-margin-right="0"
     fit-margin-bottom="0"
     inkscape:window-width="1853"
     inkscape:window-height="1145"
     inkscape:window-x="67"
     inkscape:window-y="27"
     inkscape:window-maximized="1" />
  <metadata
     id="metadata1021">
    <rdf:RDF>
      <cc:Work
         rdf:about="">
        <dc:format>image/svg+xml</dc:format>
        <dc:type
           rdf:resource="http://purl.org/dc/dcmitype/StillImage" />
        <dc:title></dc:title>
      </cc:Work>
    </rdf:RDF>
  </metadata>
  <g
     inkscape:label="Layer 1"
     inkscape:groupmode="layer"
     id="layer1"
     transform="translate(-8.1668466,-103.18836)">
    <path
       style="fill:#040403;fill-opacity:1;stroke-width:1"
       d="m 20.072741,173.86101 c -0.126238,-0.14522 -0.0969,-2.16057 0.06519,-4.47854 l 0.294706,-4.2145 -2.038241,0.0689 c -4.594374,0.15529 -9.4792772,-0.0386 -9.9258851,-0.394 -0.257151,-0.20464 -0.3637958,-0.59464 -0.2369792,-0.8667 0.1828105,-0.39215 1.4529796,-0.45258 6.1320233,-0.29167 3.245801,0.11162 6.045282,0.0779 6.221069,-0.0749 0.324808,-0.28237 -0.322718,-9.97125 1.081708,-21.09316 0.426045,-3.37398 0.02649,-7.99933 0.405628,-10.27855 0.639286,-3.8432 0.08029,-13.05445 -0.103652,-17.61076 -0.07719,-1.91215 0.607315,-3.06216 0.809706,-1.36036 0.473081,3.97772 1.249681,12.12085 0.429737,18.1687 -0.479294,3.53525 -0.226154,9.97941 -0.730986,14.3204 -0.504831,4.34098 -0.136603,10.02167 -0.475241,12.62377 -0.338628,2.6021 0.545662,4.8651 0.671593,5.02889 0.337633,0.43923 17.619415,0.59513 39.587031,0.35712 10.475747,-0.11351 10.843842,-0.11407 17.330187,-0.0268 3.400574,0.0457 9.688393,0.0189 13.97292,-0.0597 4.284526,-0.0786 10.975085,-0.17548 14.867915,-0.2154 8.93073,-0.0916 10.09074,-0.172 10.12778,-0.70174 0.0165,-0.23602 -0.46218,-0.60831 -1.06376,-0.82729 -0.60158,-0.219 -1.14528,-0.59822 -1.20822,-0.84274 -0.22742,-0.88351 1.09509,-0.78102 3.00392,0.23281 1.07168,0.56918 2.84082,1.35994 3.93141,1.75721 1.54317,0.56215 1.97225,0.87481 1.93483,1.40991 -0.0285,0.40773 -0.41196,0.79755 -0.94215,0.9578 -0.49175,0.14863 -2.25286,1.04848 -3.91358,1.99969 -2.7366,1.56742 -3.61265,1.82874 -3.55901,1.0616 0.0102,-0.1466 1.27322,-1.01806 2.80657,-1.93659 1.53334,-0.91852 2.74015,-1.85558 2.68178,-2.08234 -0.16385,-0.63654 -2.38055,-1.35214 -2.59319,-0.83713 -0.47934,1.16093 -1.30942,1.38656 -4.34318,1.1805 -1.68006,-0.11347 -4.49027,-0.15811 -6.24501,-0.0978 -1.75473,0.0603 -6.37532,0.14034 -10.267966,0.17781 -3.892656,0.0375 -8.197011,0.14669 -9.565233,0.24273 -1.368232,0.096 -6.462983,0.12958 -11.321667,0.0745 -4.858695,-0.055 -12.736025,-0.0548 -17.505188,6.6e-4 -9.975958,0.11592 -15.598839,0.12948 -28.539725,0.0689 -5.0922,-0.0239 -9.395907,0.0761 -9.563794,0.22216 -0.167886,0.14604 -0.445,2.11215 -0.615804,4.36911 -0.252204,3.33288 -0.409827,4.11559 -0.839128,4.16755 -0.290714,0.0352 -0.631855,-0.0548 -0.75809,-0.20007 z"
       id="path1639"
       inkscape:connector-curvature="0"
       sodipodi:nodetypes="csccccscccccssccscsccccccccccccccccccccccccc" />
    <path
       style="fill:#040403;fill-opacity:1;stroke-width:1"
       d="m 18.082452,114.12177 c 0.0086,-0.12352 0.712001,-0.88145 1.563028,-1.68429 0.851026,-0.80284 1.993788,-2.30447 2.539468,-3.33694 0.545681,-1.03247 1.165154,-1.80579 1.376609,-1.71848 0.211448,0.0873 0.672786,1.26459 1.025181,2.61619 0.352405,1.35161 0.958421,2.84682 1.346701,3.3227 0.388271,0.47587 0.588937,1.02796 0.445925,1.22686 -0.5822,0.8097 -1.312853,0.17539 -2.182344,-1.89463 -0.505031,-1.20231 -1.048907,-2.19517 -1.208617,-2.20634 -0.15971,-0.0112 -1.094712,0.87828 -2.077768,1.97654 -0.983066,1.09827 -2.025107,1.98023 -2.315637,1.95991 -0.290531,-0.0203 -0.521183,-0.138 -0.512546,-0.26152 z"
       id="path993"
       inkscape:connector-curvature="0" />
  </g>
</svg>
